<svg xmlns="http://www.w3.org/2000/svg" width="120" height="120" viewBox="0 0 120 120" role="img" aria-label="Roomler"><title>Roomler</title><defs><mask id="roomler-r-clear" maskUnits="userSpaceOnUse" x="0" y="0" width="120" height="120"><rect width="120" height="120" fill="#fff"/><path d="M65.41 83 55.84 65.64H53.15V83H41.95V37H60.75Q66.19 37 70.03 38.9Q73.86 40.8 75.76 44.11Q77.66 47.42 77.66 51.48Q77.66 56.07 75.07 59.67Q72.48 63.28 67.44 64.78L78.05 83ZM53.15 65.64H55.84L65.41 83H53.15Z" fill="#000" stroke="#000" stroke-width="6" stroke-linejoin="round"/></mask></defs><path d="M110 60L85 16.7H35L10 60L35 103.3H85ZM110 60L35 16.7V103.3ZM85 16.7L10 60L85 103.3ZM110 60H10M85 16.7L35 103.3M35 16.7L85 103.3" fill="none" stroke="#009688" stroke-width="2.2" stroke-linejoin="round" mask="url(#roomler-r-clear)"/><g fill="#009688"><circle cx="110" cy="60" r="6"/><circle cx="85" cy="16.7" r="6"/><circle cx="35" cy="16.7" r="6"/><circle cx="10" cy="60" r="6"/><circle cx="35" cy="103.3" r="6"/><circle cx="85" cy="103.3" r="6"/></g><path d="M65.41 83 55.84 65.64H53.15V83H41.95V37H60.75Q66.19 37 70.03 38.9Q73.86 40.8 75.76 44.11Q77.66 47.42 77.66 51.48Q77.66 56.07 75.07 59.67Q72.48 63.28 67.44 64.78L78.05 83ZM53.15 57.71H60.1Q63.18 57.71 64.72 56.2Q66.26 54.69 66.26 51.94Q66.26 49.32 64.72 47.81Q63.18 46.3 60.1 46.3H53.15Z" fill="#0B1F24"/></svg>
